<?xml version="1.0" encoding="UTF-8"?>
<svg xmlns="http://www.w3.org/2000/svg" xmlns:xlink="http://www.w3.org/1999/xlink" width="192px" height="192px" viewBox="0 0 192 192" version="1.1">
<g id="surface1">
<path style=" stroke:none;fill-rule:nonzero;fill:rgb(0%,0%,0%);fill-opacity:1;" d="M 121.136719 14.386719 C 121.136719 14.386719 70.859375 14.386719 70.859375 14.386719 C 39.679688 14.386719 14.386719 39.679688 14.386719 70.859375 C 14.386719 70.859375 14.386719 121.136719 14.386719 121.136719 C 14.386719 152.316406 39.679688 177.609375 70.859375 177.609375 C 70.859375 177.609375 121.136719 177.609375 121.136719 177.609375 C 152.316406 177.609375 177.609375 152.316406 177.609375 121.136719 C 177.609375 121.136719 177.609375 70.859375 177.609375 70.859375 C 177.609375 39.679688 152.316406 14.386719 121.136719 14.386719 Z M 121.136719 14.386719 "/>
<path style=" stroke:none;fill-rule:nonzero;fill:rgb(100%,100%,100%);fill-opacity:1;" d="M 134.371094 76.796875 C 133.78125 77.234375 123.566406 82.992188 123.566406 95.820312 C 123.566406 110.640625 136.574219 115.886719 136.957031 116.015625 C 136.90625 116.324219 134.910156 123.183594 130.121094 130.171875 C 125.847656 136.316406 121.367188 142.460938 114.582031 142.460938 C 107.773438 142.460938 106.03125 138.519531 98.199219 138.519531 C 90.367188 138.519531 87.855469 142.589844 81.636719 142.589844 C 75.414062 142.589844 71.089844 136.90625 66.097656 129.917969 C 60.3125 121.699219 55.679688 108.976562 55.679688 96.867188 C 55.679688 77.464844 68.273438 67.148438 80.714844 67.148438 C 87.320312 67.148438 92.824219 71.5 96.96875 71.5 C 101.117188 71.5 107.054688 66.917969 114.558594 66.917969 C 117.398438 66.917969 127.636719 67.171875 134.34375 76.824219 C 134.34375 76.824219 134.371094 76.796875 134.371094 76.796875 Z M 111 58.671875 C 114.097656 54.988281 116.296875 49.867188 116.296875 44.746094 C 116.296875 44.03125 116.246094 43.3125 116.117188 42.75 C 111.074219 42.929688 105.058594 46.128906 101.425781 50.328125 C 98.582031 53.554688 95.921875 58.699219 95.921875 63.871094 C 95.921875 64.664062 96.074219 65.40625 96.125 65.664062 C 96.433594 65.714844 96.96875 65.789062 97.480469 65.789062 C 102.011719 65.789062 107.695312 62.742188 111 58.671875 Z M 111 58.671875 "/>
</g>
</svg>
